<svg width="18" height="18" viewBox="0 0 18 18" fill="none" xmlns="http://www.w3.org/2000/svg">
<path d="M15.6125 17.4542L10.2458 12.0875C9.76667 12.4708 9.21562 12.7743 8.59271 12.9979C7.96979 13.2215 7.30694 13.3333 6.60417 13.3333C4.86319 13.3333 3.38992 12.7305 2.18433 11.525C0.978111 10.3187 0.375 8.84514 0.375 7.10417C0.375 5.36319 0.978111 3.8896 2.18433 2.68338C3.38992 1.47779 4.86319 0.875 6.60417 0.875C8.34514 0.875 9.81874 1.47779 11.025 2.68338C12.2305 3.8896 12.8333 5.36319 12.8333 7.10417C12.8333 7.80694 12.7215 8.46979 12.4979 9.09271C12.2743 9.71562 11.9708 10.2667 11.5875 10.7458L16.9781 16.1365C17.1538 16.3122 17.2417 16.5278 17.2417 16.7833C17.2417 17.0389 17.1458 17.2625 16.9542 17.4542C16.7785 17.6299 16.5549 17.7177 16.2833 17.7177C16.0118 17.7177 15.7882 17.6299 15.6125 17.4542ZM6.60417 11.4167C7.80208 11.4167 8.82047 10.9976 9.65933 10.1593C10.4976 9.32047 10.9167 8.30208 10.9167 7.10417C10.9167 5.90625 10.4976 4.88786 9.65933 4.049C8.82047 3.21078 7.80208 2.79167 6.60417 2.79167C5.40625 2.79167 4.38786 3.21078 3.549 4.049C2.71078 4.88786 2.29167 5.90625 2.29167 7.10417C2.29167 8.30208 2.71078 9.32047 3.549 10.1593C4.38786 10.9976 5.40625 11.4167 6.60417 11.4167Z" fill="#8A8A8A"/>
</svg>
