<svg width="19" height="19" viewBox="0 0 19 19" fill="none" xmlns="http://www.w3.org/2000/svg">
<path d="M9.59041 17.6896C5.07431 17.6896 1.40076 14.0161 1.40076 9.49996C1.40076 4.98386 5.07431 1.3103 9.59041 1.3103C14.1065 1.3103 17.7801 4.98386 17.7801 9.49996C17.7801 14.0161 14.1059 17.6896 9.59041 17.6896ZM9.59041 2.62065C5.79697 2.62065 2.7111 5.70651 2.7111 9.49996C2.7111 13.2934 5.79697 16.3793 9.59041 16.3793C13.3839 16.3793 16.4697 13.2934 16.4697 9.49996C16.4697 5.70651 13.3832 2.62065 9.59041 2.62065ZM9.538 10.1027H5.33179C5.15803 10.1027 4.99138 10.0337 4.86852 9.91082C4.74565 9.78795 4.67662 9.62131 4.67662 9.44755C4.67662 9.27378 4.74565 9.10714 4.86852 8.98427C4.99138 8.8614 5.15803 8.79237 5.33179 8.79237H8.88283V3.93099C8.88283 3.75723 8.95185 3.59058 9.07472 3.46772C9.19759 3.34485 9.36424 3.27582 9.538 3.27582C9.71176 3.27582 9.87841 3.34485 10.0013 3.46772C10.1241 3.59058 10.1932 3.75723 10.1932 3.93099V9.44755C10.1932 9.62131 10.1241 9.78795 10.0013 9.91082C9.87841 10.0337 9.71176 10.1027 9.538 10.1027Z" fill="#2623D5"/>
</svg>
